<?xml version="1.0" standalone="no"?>
<!DOCTYPE svg PUBLIC "-//W3C//DTD SVG 20010904//EN"
 "http://www.w3.org/TR/2001/REC-SVG-20010904/DTD/svg10.dtd">
<svg version="1.0" xmlns="http://www.w3.org/2000/svg"
 width="1024.000000pt" height="1024.000000pt" viewBox="0 0 1024.000000 1024.000000"
 preserveAspectRatio="xMidYMid meet">

<g transform="translate(0.000000,1024.000000) scale(0.100000,-0.100000)"
fill="#000000" stroke="none">
<path d="M2590 10200 c0 -36 -2 -40 -25 -40 -22 0 -25 -4 -25 -40 0 -38 -2
-40 -30 -40 -28 0 -30 -2 -30 -40 0 -36 -2 -40 -25 -40 -22 0 -25 -4 -25 -40
l0 -40 -40 0 -40 0 0 -40 c0 -36 -2 -40 -25 -40 -14 0 -25 -4 -25 -9 0 -6 -13
-18 -30 -28 -32 -18 -40 -43 -15 -43 11 0 15 -11 15 -40 0 -29 -4 -40 -15 -40
-9 0 -15 -9 -15 -25 0 -22 -4 -25 -40 -25 -29 0 -40 -4 -40 -15 0 -8 7 -15 15
-15 11 0 15 -11 15 -40 0 -29 -4 -40 -15 -40 -8 0 -15 -6 -15 -12 0 -25 -67
-68 -104 -68 -35 0 -36 1 -36 40 0 22 -4 40 -10 40 -5 0 -10 -26 -10 -57 0
-86 -7 -103 -40 -103 -19 0 -30 6 -33 18 -3 9 -5 -9 -6 -40 -1 -58 -1 -58 29
-58 l30 0 0 -80 0 -80 -30 0 -30 0 0 -80 0 -80 -80 0 -80 0 0 -40 c0 -29 4
-40 15 -40 8 0 15 -4 15 -9 0 -5 -7 -11 -15 -15 -8 -3 -15 -17 -15 -31 0 -25
-1 -25 -80 -25 l-80 0 0 -80 c0 -74 -1 -80 -21 -80 -11 0 -28 -8 -37 -17 -16
-16 -17 -16 -20 0 -3 13 -14 17 -43 17 -39 0 -39 0 -39 -40 0 -29 4 -40 15
-40 19 0 19 -16 0 -24 -8 -3 -15 -17 -15 -31 0 -25 -1 -25 -80 -25 l-80 0 0
-50 0 -50 -40 0 c-38 0 -40 -2 -40 -30 0 -20 -5 -30 -15 -30 -10 0 -15 10 -15
30 0 25 -4 30 -25 30 -21 0 -25 -5 -25 -30 l0 -30 -120 0 -120 0 0 -37 c0 -28
-7 -42 -32 -65 -17 -15 -35 -28 -40 -28 -4 0 -8 -7 -8 -15 0 -11 -11 -15 -40
-15 -36 0 -40 -2 -40 -25 0 -22 -4 -25 -40 -25 l-40 0 0 -43 c0 -24 -5 -48
-12 -55 -7 -7 -40 -12 -80 -12 -54 0 -68 3 -68 15 0 8 -4 15 -9 15 -5 0 -14
-7 -21 -15 -10 -13 -9 -15 9 -15 20 0 21 -5 21 -80 l0 -80 -80 0 -80 0 0 -80
0 -80 80 0 80 0 0 -40 0 -40 -55 0 -55 0 0 -39 c0 -33 -4 -40 -22 -43 -20 -3
-23 -10 -26 -50 l-3 -48 -80 0 -79 0 0 -30 0 -30 -80 0 -80 0 0 -3680 0 -3680
5120 0 5120 0 0 5120 0 5120 -3825 0 -3825 0 0 -40z m0 -289 c0 -5 -7 -11 -15
-15 -9 -3 -15 0 -15 9 0 8 7 15 15 15 8 0 15 -4 15 -9z m-80 -80 c0 -5 -7 -11
-15 -15 -9 -3 -15 0 -15 9 0 8 7 15 15 15 8 0 15 -4 15 -9z m-320 -560 c0 -5
-7 -11 -15 -15 -9 -3 -15 0 -15 9 0 8 7 15 15 15 8 0 15 -4 15 -9z m-1070
-1126 c0 -8 -5 -15 -11 -15 -6 0 -25 -11 -43 -25 -19 -14 -46 -25 -64 -25 -31
0 -32 -2 -32 -40 l0 -40 -45 0 -45 0 0 -40 c0 -39 -1 -40 -35 -40 -34 0 -35
-1 -35 -40 l0 -40 -45 0 c-41 0 -45 -2 -45 -25 0 -22 -4 -25 -40 -25 -38 0
-40 -2 -40 -30 0 -16 -5 -30 -11 -30 -6 0 -25 -11 -43 -25 -21 -16 -46 -25
-69 -25 l-37 0 0 80 0 80 80 0 80 0 0 80 0 79 78 3 77 3 3 48 3 47 80 0 79 0
0 30 0 30 80 0 c64 0 80 -3 80 -15z m4056 -387 c168 -271 232 -373 254 -408
50 -79 146 -232 185 -295 22 -36 88 -141 146 -233 193 -303 404 -633 429 -672
36 -56 125 -196 269 -425 69 -110 187 -294 263 -410 181 -278 272 -419 472
-727 91 -142 231 -356 310 -477 151 -228 296 -458 296 -468 0 -4 -10 3 -22 14
-37 32 -143 104 -283 190 -136 84 -792 486 -1025 628 -74 46 -196 120 -270
165 -74 46 -236 144 -360 218 -292 174 -430 262 -430 273 0 4 6 12 14 16 7 4
33 25 57 45 24 20 127 106 229 190 102 84 186 161 188 171 2 10 -127 213 -300
474 -168 252 -342 515 -388 586 -46 70 -87 127 -91 127 -12 0 -61 -71 -341
-490 -814 -1220 -1365 -1972 -2310 -3155 l-336 -422 -104 -58 c-208 -118 -294
-169 -341 -201 -43 -31 -67 -41 -67 -29 0 2 25 44 56 92 31 48 78 122 104 163
26 41 101 158 166 259 316 489 438 678 605 940 169 264 237 370 456 706 47 72
178 274 291 450 114 176 239 369 277 428 103 159 246 380 428 664 244 380 292
455 296 467 2 6 7 13 11 16 6 4 92 138 329 508 36 57 72 113 79 125 7 12 44
69 82 127 38 58 124 194 191 303 68 108 126 197 131 197 5 0 29 -33 54 -72z
m-430 -2290 c32 -46 95 -133 141 -195 46 -61 83 -115 83 -120 -1 -4 -51 -38
-113 -74 -132 -77 -779 -479 -886 -550 -41 -27 -76 -48 -78 -46 -1 2 147 204
330 449 182 245 360 484 395 532 34 47 64 86 66 86 3 0 31 -37 62 -82z"/>
<path d="M1950 9425 c0 -8 5 -15 10 -15 6 0 10 7 10 15 0 8 -4 15 -10 15 -5 0
-10 -7 -10 -15z"/>
<path d="M560 8069 c0 -5 5 -7 10 -4 6 3 10 8 10 11 0 2 -4 4 -10 4 -5 0 -10
-5 -10 -11z"/>
</g>
</svg>
